<mxfile host="app.diagrams.net" agent="Mozilla/5.0 (X11; Linux x86_64) AppleWebKit/537.36 (KHTML, like Gecko) Chrome/129.0.0.0 Safari/537.36" version="24.7.17">
  <diagram name="Page-1" id="nI-9GTP6WhDnTkqiH8FR">
    <mxGraphModel grid="1" page="1" gridSize="10" guides="1" tooltips="1" connect="1" arrows="1" fold="1" pageScale="1" pageWidth="827" pageHeight="1169" math="0" shadow="0">
      <root>
        <mxCell id="0" />
        <mxCell id="1" parent="0" />
        <mxCell id="sbIyoxVxpuIZIKQkDNuO-82" value="HBnB: High-Level Package Diagram&amp;nbsp;" style="shape=umlFrame;whiteSpace=wrap;html=1;pointerEvents=0;recursiveResize=0;container=1;collapsible=0;width=214;height=20;" vertex="1" parent="1">
          <mxGeometry x="-1654" width="764" height="470" as="geometry" />
        </mxCell>
        <mxCell id="ZY2CNNtL7pdWtETxebs_-7" value="Presentation" style="shape=folder;fontStyle=1;tabWidth=130;tabHeight=20;tabPosition=left;html=1;boundedLbl=1;labelInHeader=1;container=1;collapsible=0;recursiveResize=0;whiteSpace=wrap;" vertex="1" parent="sbIyoxVxpuIZIKQkDNuO-82">
          <mxGeometry x="24" y="50" width="150" height="130" as="geometry" />
        </mxCell>
        <mxCell id="sbIyoxVxpuIZIKQkDNuO-95" value="Service API" style="swimlane;fontStyle=1;align=center;verticalAlign=middle;childLayout=stackLayout;horizontal=1;startSize=21;horizontalStack=0;resizeParent=1;resizeParentMax=0;resizeLast=0;collapsible=0;marginBottom=0;html=1;whiteSpace=wrap;" vertex="1" parent="ZY2CNNtL7pdWtETxebs_-7">
          <mxGeometry x="10" y="30" width="130" height="90" as="geometry" />
        </mxCell>
        <mxCell id="sbIyoxVxpuIZIKQkDNuO-97" value="+ UserController&lt;div&gt;+ Place&lt;span style=&quot;background-color: initial;&quot;&gt;Controller&lt;/span&gt;&lt;/div&gt;&lt;div&gt;+ Review&lt;span style=&quot;background-color: initial;&quot;&gt;Controller&lt;/span&gt;&lt;/div&gt;&lt;div&gt;+ Amenity&lt;span style=&quot;background-color: initial;&quot;&gt;Controller&lt;/span&gt;&lt;/div&gt;" style="text;html=1;strokeColor=none;fillColor=none;align=left;verticalAlign=middle;spacingLeft=4;spacingRight=4;overflow=hidden;rotatable=0;points=[[0,0.5],[1,0.5]];portConstraint=eastwest;whiteSpace=wrap;" vertex="1" parent="sbIyoxVxpuIZIKQkDNuO-95">
          <mxGeometry y="21" width="130" height="69" as="geometry" />
        </mxCell>
        <mxCell id="ZY2CNNtL7pdWtETxebs_-19" value="Persistence" style="shape=folder;fontStyle=1;tabWidth=130;tabHeight=20;tabPosition=left;html=1;boundedLbl=1;labelInHeader=1;container=1;collapsible=0;recursiveResize=0;whiteSpace=wrap;" vertex="1" parent="sbIyoxVxpuIZIKQkDNuO-82">
          <mxGeometry x="580" y="310" width="150" height="130" as="geometry" />
        </mxCell>
        <mxCell id="ZY2CNNtL7pdWtETxebs_-20" value="DatabaseAccess" style="swimlane;fontStyle=1;align=center;verticalAlign=middle;childLayout=stackLayout;horizontal=1;startSize=21;horizontalStack=0;resizeParent=1;resizeParentMax=0;resizeLast=0;collapsible=0;marginBottom=0;html=1;whiteSpace=wrap;" vertex="1" parent="ZY2CNNtL7pdWtETxebs_-19">
          <mxGeometry x="10" y="30" width="130" height="90" as="geometry" />
        </mxCell>
        <mxCell id="ZY2CNNtL7pdWtETxebs_-21" value="+ UserAcces&lt;div&gt;+ PlaceAcces&lt;/div&gt;&lt;div&gt;+ ReviewAcces&lt;/div&gt;&lt;div&gt;+ AmenityAcces&lt;/div&gt;" style="text;html=1;strokeColor=none;fillColor=none;align=left;verticalAlign=middle;spacingLeft=4;spacingRight=4;overflow=hidden;rotatable=0;points=[[0,0.5],[1,0.5]];portConstraint=eastwest;whiteSpace=wrap;" vertex="1" parent="ZY2CNNtL7pdWtETxebs_-20">
          <mxGeometry y="21" width="130" height="69" as="geometry" />
        </mxCell>
        <mxCell id="ZY2CNNtL7pdWtETxebs_-10" value="Business Logic" style="shape=folder;fontStyle=1;tabWidth=130;tabHeight=20;tabPosition=left;html=1;boundedLbl=1;labelInHeader=1;container=1;collapsible=0;recursiveResize=0;whiteSpace=wrap;" vertex="1" parent="sbIyoxVxpuIZIKQkDNuO-82">
          <mxGeometry x="300" y="180" width="150" height="130" as="geometry" />
        </mxCell>
        <mxCell id="ZY2CNNtL7pdWtETxebs_-11" value="Model Classes" style="swimlane;fontStyle=1;align=center;verticalAlign=middle;childLayout=stackLayout;horizontal=1;startSize=21;horizontalStack=0;resizeParent=1;resizeParentMax=0;resizeLast=0;collapsible=0;marginBottom=0;html=1;whiteSpace=wrap;" vertex="1" parent="ZY2CNNtL7pdWtETxebs_-10">
          <mxGeometry x="10" y="30" width="130" height="90" as="geometry" />
        </mxCell>
        <mxCell id="ZY2CNNtL7pdWtETxebs_-12" value="+ UserModel&lt;div&gt;+ PlaceModel&lt;/div&gt;&lt;div&gt;+ ReviewModel&lt;/div&gt;&lt;div&gt;+ AmenityModel&lt;/div&gt;" style="text;html=1;strokeColor=none;fillColor=none;align=left;verticalAlign=middle;spacingLeft=4;spacingRight=4;overflow=hidden;rotatable=0;points=[[0,0.5],[1,0.5]];portConstraint=eastwest;whiteSpace=wrap;" vertex="1" parent="ZY2CNNtL7pdWtETxebs_-11">
          <mxGeometry y="21" width="130" height="69" as="geometry" />
        </mxCell>
        <mxCell id="ZY2CNNtL7pdWtETxebs_-22" value="" style="edgeStyle=orthogonalEdgeStyle;rounded=1;orthogonalLoop=1;jettySize=auto;html=1;endArrow=open;endFill=0;dashed=1;curved=0;" edge="1" parent="sbIyoxVxpuIZIKQkDNuO-82" source="ZY2CNNtL7pdWtETxebs_-10" target="ZY2CNNtL7pdWtETxebs_-19">
          <mxGeometry relative="1" as="geometry" />
        </mxCell>
        <mxCell id="ZY2CNNtL7pdWtETxebs_-24" value="Database Operations" style="edgeLabel;html=1;align=center;verticalAlign=middle;resizable=0;points=[];" connectable="0" vertex="1" parent="ZY2CNNtL7pdWtETxebs_-22">
          <mxGeometry x="-0.0826" relative="1" as="geometry">
            <mxPoint as="offset" />
          </mxGeometry>
        </mxCell>
        <mxCell id="ZY2CNNtL7pdWtETxebs_-13" value="Facade Pattern" style="edgeStyle=orthogonalEdgeStyle;rounded=1;orthogonalLoop=1;jettySize=auto;html=1;dashed=1;endArrow=open;endFill=0;curved=0;strokeColor=default;" edge="1" parent="sbIyoxVxpuIZIKQkDNuO-82" source="ZY2CNNtL7pdWtETxebs_-7" target="ZY2CNNtL7pdWtETxebs_-10">
          <mxGeometry relative="1" as="geometry" />
        </mxCell>
      </root>
    </mxGraphModel>
  </diagram>
</mxfile>
